HIERARCHY
ROOT Hips
{
  OFFSET 3.2188 103.674 -132.429
  CHANNELS 6 Xposition Yposition Zposition Zrotation Xrotation Yrotation
  JOINT RightUpLeg
  {
    OFFSET -8.9458 -8.66707 0.101652
    CHANNELS 3 Zrotation Xrotation Yrotation
    JOINT RightLeg
    {
      OFFSET 0 -44.4227 1.3727
      CHANNELS 3 Zrotation Xrotation Yrotation
      JOINT RightFoot
      {
        OFFSET 0.253549 -42.0924 -1.46059
        CHANNELS 3 Zrotation Xrotation Yrotation
        JOINT RightToes
        {
          OFFSET 0.04 -4.41509 8.4991
          CHANNELS 3 Zrotation Xrotation Yrotation
          End Site
          {
            OFFSET -0.08 -0.137448 9.77979
          }
        }
      }
    }
  }
  JOINT Spine
  {
    OFFSET 0 11.8905 0
    CHANNELS 3 Zrotation Xrotation Yrotation
    JOINT Spine1
    {
      OFFSET 0 25.6574 0.127663
      CHANNELS 3 Zrotation Xrotation Yrotation
      JOINT HEad
      {
        OFFSET 0 8.73416 0.011341
        CHANNELS 3 Zrotation Xrotation Yrotation
        End Site
        {
          OFFSET -0.29 12.7742 2.51395
        }
      }
      JOINT LeftShoulder1
      {
        OFFSET 8.99 -0.362252 -0.22
        CHANNELS 3 Zrotation Xrotation Yrotation
        JOINT LeftArm
        {
          OFFSET 10.2827 -0.00338 0.322123
          CHANNELS 3 Zrotation Xrotation Yrotation
          JOINT LeftForeArm
          {
            OFFSET 32.7669 0.099144 -1.42434
            CHANNELS 3 Zrotation Xrotation Yrotation
            JOINT LeftHand
            {
              OFFSET 27.5643 0.085362 1.02216
              CHANNELS 3 Zrotation Xrotation Yrotation
              End Site
              {
                OFFSET 16.7443 -0.6 1.50291
              }
            }
          }
        }
      }
      JOINT RightShoulder
      {
        OFFSET -8.99 -0.362252 -0.22
        CHANNELS 3 Zrotation Xrotation Yrotation
        JOINT RightArm
        {
          OFFSET -10.2827 -0.00338 0.322123
          CHANNELS 3 Zrotation Xrotation Yrotation
          JOINT RightForeArm
          {
            OFFSET -32.8971 0.099144 -1.42434
            CHANNELS 3 Zrotation Xrotation Yrotation
            JOINT RightHand
            {
              OFFSET -27.4921 0.085362 1.02216
              CHANNELS 3 Zrotation Xrotation Yrotation
              End Site
              {
                OFFSET -16.6312 -0.6 1.50291
              }
            }
          }
        }
      }
    }
  }
  JOINT LeftUpLeg
  {
    OFFSET 8.9458 -8.66707 0.101652
    CHANNELS 3 Zrotation Xrotation Yrotation
    JOINT LeftLeg
    {
      OFFSET 0 -44.4227 1.3727
      CHANNELS 3 Zrotation Xrotation Yrotation
      JOINT LeftFoot
      {
        OFFSET -0.253549 -42.0924 -1.46059
        CHANNELS 3 Zrotation Xrotation Yrotation
        JOINT LeftToes
        {
          OFFSET -0.04 -4.41509 8.4991
          CHANNELS 3 Zrotation Xrotation Yrotation
          End Site
          {
            OFFSET 0.08 -0.047448 9.77979
          }
        }
      }
    }
  }
}
MOTION
Frames:	14
Frame Time:	0.0166667
2.33271 103.441 -134.647 0.0286787 0.00141592 0.595848 -8.90627 1.59665 -0.974682 14.293 34.7662 -31.0809 27.4042 -3.29353 -0.289816 0.0462048 0.000533964 0.662642 0.138519 3.15981 -1.25769 -5.13848 25.7121 0.758138 -6.32531 -8.27032 13.2812 9.19379e-016 -6.36111e-015 -0 -94.6961 -45.2011 -14.2719 -19.9263 16.3328 -27.287 0.368473 9.90896 -0.00117926 -15.9531 -0.471837 5.06086 96.2211 -15.0667 20.6241 24.122 16.0833 23.227 -0.369625 9.91382 0.00119886 2.08564 -21.7626 0.175732 -9.61515 24.2991 34.4685 -3.18685 -8.68911 -0.0486974 4.88915e-011 -1.27459e-010 9.35083e-012 
2.77635 103.576 -133.528 0.0152466 0.0765691 0.710539 -9.86067 0.495239 -1.26788 15.2126 36.8557 -32.6776 27.4561 -0.834136 -0.883625 -3.85309 8.42349 6.23192 -0.251726 3.20992 -1.20173 -5.15704 25.8427 0.749824 -6.22174 -8.25867 13.0639 -9.44227e-016 3.18055e-015 -4.96962e-017 -94.7619 -44.2585 -15.1839 -20.0261 16.2871 -27.0364 0.368473 9.90896 -0.00117926 -15.8339 -0.455392 4.9212 96.1105 -15.2284 20.0881 24.0441 16.2232 24.0935 -0.369625 9.91382 0.00119886 1.74556 -21.1347 -0.512436 -9.86748 24.2378 34.8453 -3.20388 -9.23913 -0.0610045 0.46572 -1.10246 0.894547 
3.2188 103.674 -132.429 0.017822 0.149448 0.788577 -10.7927 -0.721738 -1.54169 16.2324 39.077 -34.1737 27.5313 1.23772 -1.38394 -7.41079 14.8725 9.79089 -0.649653 3.25855 -1.13882 -5.15865 25.9741 0.737211 -6.12944 -8.27128 12.8901 9.93923e-016 6.36111e-015 1.98785e-016 -94.8601 -43.3564 -16.1312 -20.1034 16.237 -26.7553 0.368473 9.90896 -0.00117926 -15.7228 -0.439505 4.7785 95.9617 -15.2987 19.5865 23.9941 16.3399 24.8698 -0.369625 9.91382 0.00119886 1.43679 -20.5692 -1.11909 -10.1562 24.2865 35.2463 -3.24461 -9.81336 -0.0753247 0.914928 -2.35634 1.64304 
3.66019 103.66 -131.385 0.0750292 0.223398 0.767504 -11.671 -2.26689 -1.84002 17.2438 41.9342 -35.0878 27.556 2.24457 -1.62603 -5.51141 17.183 6.07788 -1.09726 3.30748 -1.04924 -5.11012 26.1037 0.710695 -6.06196 -8.35263 12.8407 9.93923e-017 -3.18055e-015 -7.95139e-016 -95.1362 -42.5681 -17.2421 -20.122 16.1681 -26.345 0.368473 9.90896 -0.00117926 -15.6477 -0.425846 4.62325 95.7155 -15.1152 19.1576 24.0342 16.4099 25.4183 -0.369625 9.91382 0.00119886 1.17635 -20.2062 -1.55517 -10.5878 24.6648 35.806 -3.37783 -10.4721 -0.0967954 1.17535 -4.04414 1.79005 
4.09528 103.609 -130.375 0.137151 0.279316 0.688074 -12.4557 -3.9653 -1.95516 18.2914 44.791 -35.9956 27.537 2.67237 -1.72689 -1.60227 15.2614 0.62787 -1.49897 3.34543 -0.964406 -5.04311 26.2418 0.681855 -6.02465 -8.4673 12.8461 -1.19271e-015 9.54166e-015 3.97569e-016 -95.4449 -41.8398 -18.3733 -20.1006 16.1063 -25.9787 0.368473 9.90896 -0.00117926 -15.5583 -0.411676 4.47182 95.4211 -14.7982 18.8304 24.1221 16.446 25.7838 -0.369625 9.91382 0.00119886 0.947611 -19.8897 -1.79459 -11.0094 25.1489 36.2336 -3.49165 -11.1313 -0.118006 1.51626 -5.92749 2.11776 
4.52018 103.576 -129.386 0.159739 0.289822 0.567931 -13.0451 -5.72313 -1.60035 19.4791 47.1116 -37.5325 27.4697 2.97244 -1.79479 0.613089 6.13 -1.3145 -1.74111 3.35737 -0.918617 -4.99366 26.408 0.664113 -6.01449 -8.612 12.8852 1.2921e-015 0 3.97569e-016 -95.6729 -41.1511 -19.4029 -20.0432 16.0801 -25.8378 0.368473 9.90896 -0.00117926 -15.4076 -0.394176 4.33264 95.0915 -14.3722 18.6748 24.238 16.4451 25.9481 -0.369625 9.91382 0.00119886 0.747027 -19.4823 -1.72217 -11.2493 25.5779 36.1667 -3.5069 -11.71 -0.134978 2.38501 -7.79032 3.59871 
4.93099 103.532 -128.425 0.164374 0.283086 0.41395 -13.4756 -7.51309 -1.0458 20.6901 48.8982 -38.8754 27.3993 2.56998 -1.6934 2.3335 -3.28387 -2.96795 -1.91939 3.35634 -0.883495 -4.91577 26.5726 0.642469 -6.0698 -8.73449 12.8926 1.2424e-016 -3.18055e-015 4.96962e-017 -95.8883 -40.4903 -20.4109 -19.9642 16.074 -25.7977 0.368473 9.90896 -0.00117926 -15.2129 -0.375262 4.22001 94.7566 -13.968 18.6011 24.3707 16.4255 25.964 -0.369625 9.91382 0.00119886 0.562545 -19.0661 -1.51243 -11.4086 26.0237 35.9209 -3.39271 -12.2583 -0.142252 3.41464 -9.82125 5.24034 
5.32612 103.458 -127.501 0.160005 0.286762 0.245905 -13.792 -9.26932 -0.448833 21.7323 50.0147 -39.0544 27.3519 0.669774 -1.23701 4.28376 -5.51584 -6.53621 -2.08238 3.35145 -0.841224 -4.77079 26.6894 0.605541 -6.29187 -8.76907 12.7393 -6.70898e-016 3.18055e-015 7.20594e-016 -96.1009 -39.8288 -21.4204 -19.8808 16.0825 -25.7957 0.368473 9.90896 -0.00117926 -14.9567 -0.355876 4.17825 94.4296 -13.7646 18.5107 24.5031 16.4064 25.8844 -0.369625 9.91382 0.00119886 0.366414 -18.69 -1.32039 -11.5131 26.5172 35.6486 -2.97364 -12.8002 -0.123254 4.18184 -12.3738 6.11728 
5.69467 103.38 -126.602 0.140445 0.275017 0.0427468 -13.9663 -11.0098 0.136376 22.3806 50.5397 -38.6887 27.4718 -1.61824 -0.688992 5.98933 -5.34322 -9.80728 -2.258 3.33936 -0.794401 -4.57232 26.8275 0.555727 -6.49054 -8.75313 12.5939 -1.47846e-015 -3.18055e-015 -2.64011e-016 -96.3544 -39.1931 -22.469 -19.7862 16.1004 -25.8285 0.368473 9.90896 -0.00117926 -14.6963 -0.33615 4.12564 94.1759 -13.6392 18.4957 24.6286 16.3777 25.6917 -0.369625 9.91382 0.00119886 0.21996 -18.3156 -1.08306 -11.6444 27.0044 35.4897 -2.60329 -13.332 -0.107117 4.93701 -14.7877 6.97089 
6.02135 103.317 -125.724 0.104764 0.23588 -0.222345 -14.0078 -12.7701 0.545687 22.4173 50.4907 -38.2378 27.965 -3.4259 -0.249641 6.56437 -4.92328 -11.0055 -2.50934 3.32066 -0.736195 -4.31263 27.0612 0.48931 -6.45885 -8.71106 12.6262 4.22417e-016 -3.18055e-015 -6.70898e-016 -96.7356 -38.6014 -23.6387 -19.68 16.1238 -25.8867 0.368473 9.90896 -0.00117926 -14.5088 -0.31664 3.95942 94.1138 -13.5236 18.679 24.7331 16.3325 25.342 -0.369625 9.91382 0.00119886 0.196188 -17.9369 -0.785558 -11.9789 27.4123 35.8094 -2.66768 -13.8382 -0.123337 5.9712 -16.4816 8.51729 
6.31777 103.269 -124.853 0.0447373 0.155407 -0.51228 -13.9109 -14.4346 0.941145 22.0603 49.815 -37.6377 28.4832 -4.81776 0.0923689 6.60989 -4.73748 -11.097 -2.77941 3.29269 -0.677072 -4.01595 27.3289 0.412777 -6.34858 -8.61664 12.7032 9.93923e-017 -3.18055e-015 -4.96962e-016 -97.1239 -38.0422 -24.8155 -19.5597 16.1432 -25.9259 0.368473 9.90896 -0.00117926 -14.317 -0.29698 3.78705 94.0973 -13.4327 18.8715 24.8196 16.2791 24.9669 -0.369625 9.91382 0.00119886 0.229301 -17.5045 -0.439594 -12.2872 27.8165 36.0958 -2.89814 -14.378 -0.155164 6.85835 -17.533 9.88272 
6.59295 103.244 -123.97 -0.0572722 -0.00436451 -0.814633 -13.6463 -15.8781 1.49771 21.5049 48.4156 -37.0544 28.6465 -5.43897 0.24747 6.32084 -6.66047 -10.3676 -3.03467 3.2509 -0.622428 -3.69284 27.6087 0.328691 -6.25755 -8.43735 12.7565 1.09332e-015 -9.54166e-015 -9.93923e-017 -97.4484 -37.5419 -25.9229 -19.4135 16.1401 -25.8577 0.368473 9.90896 -0.00117926 -14.068 -0.278202 3.71799 94.0023 -13.3649 18.8987 24.8835 16.2251 24.7008 -0.369625 9.91382 0.00119886 0.279239 -16.9461 -0.00628482 -12.2991 28.3348 35.7804 -3.18415 -15.0402 -0.200496 7.02418 -17.6675 10.1458 
6.83941 103.231 -123.088 -0.175472 -0.183293 -1.08226 -13.252 -17.1628 2.01945 20.6806 46.46 -36.4068 28.7296 -5.68126 0.310269 5.83686 -8.60636 -9.11619 -3.26795 3.20164 -0.580635 -3.37756 27.8567 0.24556 -6.14031 -8.21636 12.7614 6.95746e-016 6.36111e-015 3.97569e-016 -97.6601 -37.0189 -26.9417 -19.2692 16.1375 -25.8042 0.368473 9.90896 -0.00117926 -13.767 -0.256718 3.64348 93.8861 -13.3009 18.8413 24.9369 16.1707 24.4898 -0.369625 9.91382 0.00119886 0.335741 -16.3254 0.37575 -12.2569 28.8016 35.3765 -3.4367 -15.7208 -0.244833 6.95736 -17.4575 10.0921 
7.05228 103.216 -122.221 -0.284922 -0.320829 -1.26021 -12.7725 -18.3368 2.31676 19.5617 44.0804 -35.7288 28.9693 -5.84367 0.353687 5.12298 -8.66079 -7.60444 -3.4674 3.15036 -0.561843 -3.10139 28.0039 0.170659 -5.99402 -7.97487 12.6443 -2.78299e-015 3.18055e-015 -1.78906e-015 -97.6664 -36.3928 -27.7987 -19.1508 16.1586 -25.8966 0.368473 9.90896 -0.00117926 -13.3967 -0.22794 3.46778 93.7798 -13.228 18.7495 24.985 16.1117 24.2881 -0.369625 9.91382 0.00119886 0.385145 -15.6951 0.560138 -12.3788 29.0647 35.2842 -3.47847 -16.3748 -0.268543 7.03962 -17.2359 10.3141 
